<svg width="20" height="20" viewBox="0 0 20 20" fill="none" xmlns="http://www.w3.org/2000/svg">
<g clip-path="url(#clip0_1_15172)">
<path d="M10 18C5.5625 18 2 14.4375 2 10C2 5.59375 5.5625 2 10 2C14.4062 2 18 5.59375 18 10C18 14.4375 14.4062 18 10 18ZM13.5312 8.53125H13.5C13.8125 8.25 13.8125 7.78125 13.5 7.46875C13.2188 7.1875 12.75 7.1875 12.4688 7.46875L9 10.9688L7.53125 9.5C7.21875 9.1875 6.75 9.1875 6.46875 9.5C6.15625 9.78125 6.15625 10.25 6.46875 10.5312L8.46875 12.5312C8.75 12.8438 9.21875 12.8438 9.53125 12.5312L13.5312 8.53125Z" fill="white"/>
</g>
<defs>
<clipPath id="clip0_1_15172">
<rect width="20" height="20" fill="white"/>
</clipPath>
</defs>
</svg>
