<svg width="105" height="30" viewBox="0 0 105 30" fill="none" xmlns="http://www.w3.org/2000/svg">
<g clip-path="url(#clip0_1_14329)">
<path d="M0 6.00098V3.16977C0 1.41806 1.41806 0 3.16977 0H30.2159V26.8302C30.2159 28.5819 28.7978 30 27.0461 30H12.0854V24.0481H23.0716C23.6752 24.0481 24.1658 23.5574 24.1658 22.9539V6.00098H0Z" fill="white"/>
<path d="M0 24.9362V28.106C0 29.8577 1.41806 30 3.16977 30H6.04514V12.002H0V24.9411V24.9362Z" fill="white"/>
<path d="M36.2954 23.7831C36.1776 23.6654 36.1187 23.5182 36.1187 23.3464V6.69774C36.1187 6.51128 36.1727 6.35427 36.2856 6.23651C36.3984 6.11874 36.5456 6.05986 36.7321 6.05986H43.5869C45.6477 6.05986 47.2718 6.54563 48.4446 7.51717C49.6222 8.48871 50.211 9.90186 50.211 11.7615C50.211 13.6212 49.6222 14.9951 48.4446 15.9421C47.2669 16.8891 45.6477 17.3602 43.5869 17.3602H39.8283V23.3464C39.8283 23.5329 39.7694 23.685 39.6516 23.7929C39.5339 23.9058 39.3768 23.9598 39.1904 23.9598H36.737C36.5653 23.9598 36.423 23.9009 36.3003 23.7782M43.4642 14.4946C44.4553 14.4946 45.2061 14.2591 45.7262 13.7929C46.2463 13.3268 46.5064 12.6398 46.5064 11.7321C46.5064 10.8243 46.2561 10.157 45.7507 9.66143C45.2453 9.16585 44.4848 8.92051 43.4593 8.92051H39.7743V14.4946H43.4593H43.4642Z" fill="white"/>
<path d="M54.4554 23.7831C54.3376 23.6654 54.2787 23.5182 54.2787 23.3464V6.69774C54.2787 6.51128 54.3327 6.35427 54.4455 6.23651C54.5584 6.11874 54.7056 6.05986 54.8921 6.05986H61.5162C63.6114 6.05986 65.2552 6.54563 66.4377 7.51717C67.6202 8.48871 68.2139 9.86752 68.2139 11.6585C68.2139 12.9048 67.9146 13.945 67.316 14.789C66.7174 15.633 65.8832 16.2414 64.8086 16.6192L68.5182 23.1403C68.5672 23.2434 68.5967 23.3366 68.5967 23.42C68.5967 23.5721 68.5427 23.6997 68.4298 23.8027C68.317 23.9058 68.1943 23.9549 68.0569 23.9549H65.7066C65.4318 23.9549 65.2208 23.8911 65.0687 23.7635C64.9166 23.6359 64.7792 23.4691 64.6614 23.263L61.3886 17.2031H57.8852V23.3415C57.8852 23.5132 57.8263 23.6555 57.7085 23.7782C57.5908 23.896 57.4338 23.9549 57.2473 23.9549H54.8921C54.7203 23.9549 54.578 23.896 54.4554 23.7782M61.4377 14.2885C62.4632 14.2885 63.2287 14.0628 63.739 13.6114C64.2493 13.16 64.5044 12.4975 64.5044 11.629C64.5044 10.7605 64.2493 10.0883 63.739 9.62218C63.2287 9.15113 62.4583 8.92051 61.4377 8.92051H57.8852V14.2934H61.4377V14.2885Z" fill="white"/>
<path d="M72.9735 23.7831C72.8558 23.6654 72.7969 23.5182 72.7969 23.3464V6.69774C72.7969 6.51129 72.8508 6.35918 72.9637 6.23651C73.0766 6.11874 73.2238 6.05496 73.4102 6.05496H84.6909C84.8773 6.05496 85.0344 6.11384 85.1521 6.23651C85.2699 6.35427 85.3288 6.51129 85.3288 6.69774V8.41021C85.3288 8.59666 85.2699 8.74877 85.1521 8.85672C85.0344 8.96958 84.8773 9.02355 84.6909 9.02355H76.3003V13.4985H84.1266C84.3131 13.4985 84.4652 13.5574 84.5878 13.6801C84.7056 13.7978 84.7694 13.9549 84.7694 14.1413V15.7507C84.7694 15.9372 84.7105 16.0893 84.5878 16.1973C84.4701 16.3101 84.3131 16.3641 84.1266 16.3641H76.3003V20.9912H84.8921C85.0785 20.9912 85.2306 21.0451 85.3533 21.158C85.4711 21.2709 85.5299 21.4181 85.5299 21.6045V23.3415C85.5299 23.528 85.4711 23.6801 85.3533 23.788C85.2355 23.9009 85.0785 23.9549 84.8921 23.9549H73.4102C73.2385 23.9549 73.0962 23.896 72.9735 23.7782" fill="white"/>
<path d="M90.1864 23.7831C90.0687 23.6654 90.0049 23.5182 90.0049 23.3464V6.69774C90.0049 6.51128 90.0589 6.35427 90.1717 6.23651C90.2846 6.11874 90.4318 6.05986 90.6182 6.05986H97.473C99.5338 6.05986 101.158 6.54563 102.331 7.51717C103.508 8.48871 104.097 9.90186 104.097 11.7615C104.097 13.6212 103.508 14.9951 102.331 15.9421C101.153 16.8891 99.5338 17.3602 97.473 17.3602H93.7144V23.3464C93.7144 23.5329 93.6555 23.685 93.5329 23.7929C93.4151 23.9058 93.2581 23.9598 93.0716 23.9598H90.6182C90.4465 23.9598 90.3042 23.9009 90.1815 23.7782M97.3405 14.4946C98.3268 14.4946 99.0824 14.2591 99.6025 13.7929C100.123 13.3268 100.383 12.6398 100.383 11.7321C100.383 10.8243 100.132 10.157 99.6271 9.66143C99.1217 9.16585 98.3611 8.92051 97.3405 8.92051H93.6555V14.4946H97.3405Z" fill="white"/>
<path d="M17.3111 11.9774H12.8999C12.4485 11.9774 12.0805 12.3405 12.0805 12.7969V17.208C12.0805 17.6595 12.4436 18.0275 12.8999 18.0275H17.3111C17.7625 18.0275 18.1305 17.6644 18.1305 17.208V12.7969C18.1305 12.3454 17.7625 11.9774 17.3111 11.9774Z" fill="#FF9E00"/>
</g>
<defs>
<clipPath id="clip0_1_14329">
<rect width="104.097" height="30" fill="white"/>
</clipPath>
</defs>
</svg>
