<svg width="28" height="28" viewBox="0 0 28 28" fill="none" xmlns="http://www.w3.org/2000/svg">
<g clip-path="url(#clip0_1_14328)">
<path d="M3.5 6.125C3.5 5.51562 3.96875 5 4.625 5H23.375C23.9844 5 24.5 5.51562 24.5 6.125C24.5 6.78125 23.9844 7.25 23.375 7.25H4.625C3.96875 7.25 3.5 6.78125 3.5 6.125ZM3.5 13.625C3.5 13.0156 3.96875 12.5 4.625 12.5H23.375C23.9844 12.5 24.5 13.0156 24.5 13.625C24.5 14.2812 23.9844 14.75 23.375 14.75H4.625C3.96875 14.75 3.5 14.2812 3.5 13.625ZM23.375 22.25H4.625C3.96875 22.25 3.5 21.7812 3.5 21.125C3.5 20.5156 3.96875 20 4.625 20H23.375C23.9844 20 24.5 20.5156 24.5 21.125C24.5 21.7812 23.9844 22.25 23.375 22.25Z" fill="white"/>
</g>
<defs>
<clipPath id="clip0_1_14328">
<rect width="28" height="28" fill="white"/>
</clipPath>
</defs>
</svg>
