<svg width="17" height="16" viewBox="0 0 17 16" fill="none" xmlns="http://www.w3.org/2000/svg">
<path d="M10.8021 7.65625L11.7709 6.6875L12.6771 6.84375C12.7709 7.21875 12.8334 7.59375 12.8334 8C12.8334 10.5 10.8021 12.5 8.33337 12.5C5.83337 12.5 3.83337 10.5 3.83337 8C3.83337 5.53125 5.83337 3.5 8.33337 3.5C8.73962 3.5 9.11462 3.5625 9.48962 3.65625L9.64587 4.5625L8.67712 5.53125C8.55212 5.53125 8.42712 5.5 8.33337 5.5C6.92712 5.5 5.83337 6.625 5.83337 8C5.83337 9.40625 6.92712 10.5 8.33337 10.5C9.70837 10.5 10.8334 9.40625 10.8334 8C10.8334 7.90625 10.8021 7.78125 10.8021 7.65625ZM14.2396 7L14.5209 6.71875L15.8646 5.375C16.1771 6.1875 16.3334 7.09375 16.3334 8C16.3334 12.4375 12.7396 16 8.33337 16C3.89587 16 0.333374 12.4375 0.333374 8C0.333374 3.59375 3.89587 0 8.33337 0C9.23962 0 10.1459 0.15625 10.9584 0.46875L9.61462 1.8125L9.33337 2.09375C8.98962 2.03125 8.64587 2 8.33337 2C5.02087 2 2.33337 4.6875 2.33337 8C2.33337 11.3125 5.02087 14 8.33337 14C11.6459 14 14.3334 11.3125 14.3334 8C14.3334 7.65625 14.3021 7.34375 14.2396 7ZM11.7396 5.65625L8.83337 8.53125C8.55212 8.84375 8.08337 8.84375 7.80212 8.53125C7.48962 8.25 7.48962 7.78125 7.80212 7.46875L10.6771 4.59375L10.3959 3.03125C10.3646 2.71875 10.4584 2.375 10.6771 2.15625L12.2709 0.5625C12.5521 0.28125 12.9584 0.375 13.1146 0.71875L13.8334 2.5L15.6146 3.21875C15.9584 3.375 16.0521 3.78125 15.7709 4.0625L14.1771 5.65625C13.9584 5.875 13.6459 5.96875 13.3021 5.9375L11.7396 5.65625Z" fill="white"/>
</svg>
