<svg width="17" height="16" viewBox="0 0 17 16" fill="none" xmlns="http://www.w3.org/2000/svg">
<path d="M8.33337 16C3.89587 16 0.333374 12.4375 0.333374 8C0.333374 3.59375 3.89587 0 8.33337 0C12.7396 0 16.3334 3.59375 16.3334 8C16.3334 12.4375 12.7396 16 8.33337 16ZM8.33337 4C7.89587 4 7.58337 4.34375 7.58337 4.75V8.25C7.58337 8.6875 7.89587 9 8.33337 9C8.73962 9 9.08337 8.6875 9.08337 8.25V4.75C9.08337 4.34375 8.73962 4 8.33337 4ZM9.33337 11C9.33337 10.4688 8.86462 10 8.33337 10C7.77087 10 7.33337 10.4688 7.33337 11C7.33337 11.5625 7.77087 12 8.33337 12C8.86462 12 9.33337 11.5625 9.33337 11Z" fill="white"/>
</svg>
